<svg width="24" height="24" viewBox="0 0 24 24" fill="none" xmlns="http://www.w3.org/2000/svg">
<rect opacity="0.1" width="24" height="24" rx="4" fill="#16DB65"/>
<g clip-path="url(#clip0_891_21155)">
<path d="M15 16.5V15.5C15 14.9696 14.7893 14.4609 14.4142 14.0858C14.0391 13.7107 13.5304 13.5 13 13.5H9.5C8.96957 13.5 8.46086 13.7107 8.08579 14.0858C7.71071 14.4609 7.5 14.9696 7.5 15.5V16.5M15.5 11.5L16.5 12.5L18.5 10.5M13.25 9.5C13.25 10.6046 12.3546 11.5 11.25 11.5C10.1454 11.5 9.25 10.6046 9.25 9.5C9.25 8.39543 10.1454 7.5 11.25 7.5C12.3546 7.5 13.25 8.39543 13.25 9.5Z" stroke="#16DB65" stroke-width="1.25" stroke-linecap="round" stroke-linejoin="round"/>
</g>
<defs>
<clipPath id="clip0_891_21155">
<rect width="12" height="12" fill="white" transform="translate(7 6)"/>
</clipPath>
</defs>
</svg>
